<?xml version="1.0" encoding="UTF-8" standalone="no"?>
<svg
   id="Layer_1"
   data-name="Layer 1"
   viewBox="0 0 331.89999 71.030001"
   version="1.1"
   sodipodi:docname="quilting-adventures-stacked-hzt-full.svg"
   inkscape:version="1.1.2 (0a00cf5339, 2022-02-04)"
   width="331.89999"
   height="71.029999"
   xmlns:inkscape="http://www.inkscape.org/namespaces/inkscape"
   xmlns:sodipodi="http://sodipodi.sourceforge.net/DTD/sodipodi-0.dtd"
   xmlns="http://www.w3.org/2000/svg"
   xmlns:svg="http://www.w3.org/2000/svg">
  <sodipodi:namedview
     id="namedview101"
     pagecolor="#ffffff"
     bordercolor="#666666"
     borderopacity="1.0"
     inkscape:pageshadow="2"
     inkscape:pageopacity="0.0"
     inkscape:pagecheckerboard="true"
     showgrid="false"
     inkscape:zoom="3.2470588"
     inkscape:cx="197.87138"
     inkscape:cy="66.983696"
     inkscape:window-width="1920"
     inkscape:window-height="1011"
     inkscape:window-x="0"
     inkscape:window-y="32"
     inkscape:window-maximized="1"
     inkscape:current-layer="Layer_1"
     fit-margin-top="0"
     fit-margin-left="0"
     fit-margin-right="0"
     fit-margin-bottom="0" />
  <defs
     id="defs4">
    <style
       id="style2">
      .cls-1, .cls-2, .cls-3, .cls-4, .cls-5 {
        stroke-width: 0px;
      }

      .cls-2 {
        fill: #f4ca4b;
      }

      .cls-3 {
        fill: #406c7b;
      }

      .cls-4 {
        fill: #8e2a59;
      }

      .cls-5 {
        fill: #c37633;
      }
    </style>
  </defs>
  <g
     id="g1239"
     transform="translate(0,-4.5)">
    <g
       id="g50"
       transform="translate(-4)">
      <path
         class="cls-1"
         d="m 103.49,5.32 c 7.6,0 13.68,6.12 13.68,13.72 0,5.4 -3.15,10.07 -7.75,12.35 l 4.6,7.29 c 0.34,0.53 0,1.14 -0.61,1.14 h -2.96 c -0.15,0 -0.46,-0.11 -0.61,-0.38 l -4.1,-6.92 c -0.72,0.11 -1.56,0.15 -2.24,0.15 -7.6,0 -13.64,-6.04 -13.64,-13.64 0,-7.6 6.04,-13.72 13.64,-13.72 z m 0,23.56 c 5.43,0 9.88,-4.41 9.88,-9.84 0,-5.43 -4.45,-9.92 -9.88,-9.92 -5.43,0 -9.84,4.52 -9.84,9.92 0,5.4 4.45,9.84 9.84,9.84 z"
         id="path14" />
      <path
         class="cls-1"
         d="m 122.8,6.43 c 0,-0.38 0.34,-0.72 0.72,-0.72 h 2.55 c 0.42,0 0.72,0.34 0.72,0.72 v 15.69 c 0,3.8 2.43,6.76 6.31,6.76 3.88,0 6.38,-2.93 6.38,-6.69 V 6.43 c 0,-0.38 0.3,-0.72 0.72,-0.72 h 2.55 c 0.38,0 0.72,0.34 0.72,0.72 v 15.96 c 0,5.77 -4.37,10.3 -10.37,10.3 -6,0 -10.3,-4.52 -10.3,-10.3 z"
         id="path16" />
      <path
         class="cls-1"
         d="m 151.3,6.43 c 0,-0.38 0.34,-0.72 0.72,-0.72 h 2.51 c 0.38,0 0.72,0.34 0.72,0.72 v 25.15 c 0,0.38 -0.34,0.72 -0.72,0.72 h -2.51 c -0.38,0 -0.72,-0.34 -0.72,-0.72 z"
         id="path18" />
      <path
         class="cls-1"
         d="m 163.88,6.43 c 0,-0.38 0.3,-0.72 0.72,-0.72 h 2.51 c 0.38,0 0.72,0.34 0.72,0.72 v 22.34 h 10.3 c 0.42,0 0.72,0.34 0.72,0.72 v 2.09 c 0,0.38 -0.3,0.72 -0.72,0.72 H 164.6 c -0.42,0 -0.72,-0.34 -0.72,-0.72 z"
         id="path20" />
      <path
         class="cls-1"
         d="m 185.69,9.28 h -6.19 c -0.42,0 -0.72,-0.34 -0.72,-0.72 V 6.43 c 0,-0.38 0.3,-0.72 0.72,-0.72 h 16.34 c 0.42,0 0.72,0.34 0.72,0.72 v 2.13 c 0,0.38 -0.3,0.72 -0.72,0.72 h -6.19 v 22.3 c 0,0.38 -0.34,0.72 -0.72,0.72 h -2.51 c -0.38,0 -0.72,-0.34 -0.72,-0.72 V 9.28 Z"
         id="path22" />
      <path
         class="cls-1"
         d="m 201.46,6.43 c 0,-0.38 0.34,-0.72 0.72,-0.72 h 2.51 c 0.38,0 0.72,0.34 0.72,0.72 v 25.15 c 0,0.38 -0.34,0.72 -0.72,0.72 h -2.51 c -0.38,0 -0.72,-0.34 -0.72,-0.72 z"
         id="path24" />
      <path
         class="cls-1"
         d="m 213.58,6.01 c 0,-0.38 0.34,-0.68 0.72,-0.68 h 0.95 l 16.49,19.07 h 0.04 V 6.43 c 0,-0.38 0.3,-0.72 0.72,-0.72 h 2.43 c 0.38,0 0.72,0.34 0.72,0.72 V 32 c 0,0.38 -0.34,0.68 -0.72,0.68 h -0.99 l -16.49,-19.6 h -0.04 v 18.5 c 0,0.38 -0.3,0.72 -0.72,0.72 h -2.39 c -0.38,0 -0.72,-0.34 -0.72,-0.72 z"
         id="path26" />
      <path
         class="cls-1"
         d="m 253.86,5.32 c 3.65,0 6.65,1.33 9.23,3.53 0.3,0.3 0.34,0.76 0.04,1.06 -0.57,0.61 -1.14,1.18 -1.71,1.79 -0.3,0.34 -0.61,0.3 -0.99,-0.04 -1.79,-1.56 -4.14,-2.58 -6.46,-2.58 -5.39,0 -9.54,4.56 -9.54,9.88 0,5.32 4.14,9.84 9.54,9.84 3.15,0 5.32,-1.14 5.7,-1.29 v -4.26 h -3.72 c -0.42,0 -0.72,-0.3 -0.72,-0.68 v -2.2 c 0,-0.42 0.3,-0.72 0.72,-0.72 h 6.91 c 0.38,0 0.68,0.34 0.68,0.72 0,3.04 0.04,6.16 0.04,9.19 0,0.19 -0.15,0.49 -0.3,0.61 0,0 -3.91,2.51 -9.42,2.51 -7.56,0 -13.68,-6.04 -13.68,-13.64 0,-7.6 6.12,-13.72 13.68,-13.72 z"
         id="path28" />
      <path
         class="cls-1"
         d="M 88.22,73.31 99.88,47.74 c 0.11,-0.23 0.46,-0.42 0.65,-0.42 h 0.38 c 0.19,0 0.53,0.19 0.65,0.42 l 11.59,25.57 c 0.23,0.49 -0.08,0.99 -0.65,0.99 h -2.39 c -0.46,0 -0.72,-0.23 -0.87,-0.57 l -2.36,-5.21 H 94.46 C 93.7,70.27 92.9,71.98 92.14,73.73 92.03,74 91.72,74.3 91.27,74.3 h -2.39 c -0.57,0 -0.87,-0.49 -0.65,-0.99 z m 17.21,-8.05 -4.67,-10.41 h -0.19 l -4.64,10.41 z"
         id="path30" />
      <path
         class="cls-1"
         d="m 117.75,48.43 c 0,-0.38 0.3,-0.72 0.68,-0.72 h 8.74 c 7.33,0 13.34,5.97 13.34,13.26 0,7.29 -6,13.34 -13.34,13.34 h -8.74 c -0.38,0 -0.68,-0.34 -0.68,-0.72 V 48.44 Z m 8.89,22.26 c 5.58,0 9.65,-4.1 9.65,-9.73 0,-5.63 -4.07,-9.65 -9.65,-9.65 h -5.02 v 19.38 z"
         id="path32" />
      <path
         class="cls-1"
         d="m 142.29,48.69 c -0.23,-0.49 0.08,-0.99 0.65,-0.99 h 2.7 c 0.3,0 0.57,0.23 0.65,0.42 l 8.36,18.81 h 0.23 l 8.36,-18.81 c 0.08,-0.19 0.3,-0.42 0.65,-0.42 h 2.7 c 0.57,0 0.87,0.49 0.65,0.99 l -11.66,25.57 c -0.11,0.23 -0.34,0.42 -0.65,0.42 h -0.38 c -0.27,0 -0.53,-0.19 -0.65,-0.42 L 142.31,48.69 Z"
         id="path34" />
      <path
         class="cls-1"
         d="m 171.55,48.43 c 0,-0.38 0.3,-0.72 0.72,-0.72 h 15.2 c 0.42,0 0.72,0.34 0.72,0.72 v 2.13 c 0,0.38 -0.3,0.72 -0.72,0.72 h -12.01 v 7.75 h 10.14 c 0.38,0 0.72,0.34 0.72,0.72 v 2.13 c 0,0.42 -0.34,0.72 -0.72,0.72 h -10.14 v 8.17 h 12.01 c 0.42,0 0.72,0.34 0.72,0.72 v 2.09 c 0,0.38 -0.3,0.72 -0.72,0.72 h -15.2 c -0.42,0 -0.72,-0.34 -0.72,-0.72 z"
         id="path36" />
      <path
         class="cls-1"
         d="m 194.54,48.01 c 0,-0.38 0.34,-0.68 0.72,-0.68 h 0.95 L 212.7,66.4 h 0.04 V 48.43 c 0,-0.38 0.3,-0.72 0.72,-0.72 h 2.43 c 0.38,0 0.72,0.34 0.72,0.72 V 74 c 0,0.38 -0.34,0.68 -0.72,0.68 H 214.9 L 198.41,55.07 h -0.04 v 18.5 c 0,0.38 -0.3,0.72 -0.72,0.72 h -2.39 c -0.38,0 -0.72,-0.34 -0.72,-0.72 V 48 Z"
         id="path38" />
      <path
         class="cls-1"
         d="m 228.44,51.28 h -6.19 c -0.42,0 -0.72,-0.34 -0.72,-0.72 v -2.13 c 0,-0.38 0.3,-0.72 0.72,-0.72 h 16.34 c 0.42,0 0.72,0.34 0.72,0.72 v 2.13 c 0,0.38 -0.3,0.72 -0.72,0.72 h -6.19 v 22.3 c 0,0.38 -0.34,0.72 -0.72,0.72 h -2.51 c -0.38,0 -0.72,-0.34 -0.72,-0.72 v -22.3 z"
         id="path40" />
      <path
         class="cls-1"
         d="m 243.87,48.43 c 0,-0.38 0.34,-0.72 0.72,-0.72 h 2.55 c 0.42,0 0.72,0.34 0.72,0.72 v 15.69 c 0,3.8 2.43,6.76 6.31,6.76 3.88,0 6.38,-2.93 6.38,-6.69 V 48.42 c 0,-0.38 0.3,-0.72 0.72,-0.72 h 2.55 c 0.38,0 0.72,0.34 0.72,0.72 v 15.96 c 0,5.78 -4.37,10.3 -10.37,10.3 -6,0 -10.3,-4.52 -10.3,-10.3 V 48.42 Z"
         id="path42" />
      <path
         class="cls-1"
         d="m 271.49,48.43 c 0,-0.38 0.3,-0.72 0.72,-0.72 h 10.33 c 4.56,0 8.28,3.61 8.28,8.13 0,3.5 -2.32,6.38 -5.62,7.71 l 5.21,9.65 c 0.27,0.49 0,1.1 -0.65,1.1 h -2.96 c -0.3,0 -0.53,-0.19 -0.61,-0.34 l -5.05,-10.07 h -5.74 v 9.69 c 0,0.38 -0.34,0.72 -0.72,0.72 h -2.47 c -0.42,0 -0.72,-0.34 -0.72,-0.72 z m 10.75,12.2 c 2.47,0 4.63,-2.09 4.63,-4.71 0,-2.47 -2.17,-4.52 -4.63,-4.52 h -6.76 v 9.23 z"
         id="path44" />
      <path
         class="cls-1"
         d="m 297.56,48.43 c 0,-0.38 0.3,-0.72 0.72,-0.72 h 15.2 c 0.42,0 0.72,0.34 0.72,0.72 v 2.13 c 0,0.38 -0.3,0.72 -0.72,0.72 h -12.01 v 7.75 h 10.14 c 0.38,0 0.72,0.34 0.72,0.72 v 2.13 c 0,0.42 -0.34,0.72 -0.72,0.72 h -10.14 v 8.17 h 12.01 c 0.42,0 0.72,0.34 0.72,0.72 v 2.09 c 0,0.38 -0.3,0.72 -0.72,0.72 h -15.2 c -0.42,0 -0.72,-0.34 -0.72,-0.72 z"
         id="path46" />
      <path
         class="cls-1"
         d="m 319.03,70.46 c 0.34,-0.49 0.65,-1.06 0.99,-1.56 0.34,-0.5 0.87,-0.65 1.29,-0.3 0.23,0.19 3.15,2.62 6.08,2.62 2.62,0 4.29,-1.6 4.29,-3.53 0,-2.28 -1.98,-3.72 -5.74,-5.28 -3.88,-1.63 -6.92,-3.65 -6.92,-8.05 0,-2.96 2.28,-7.03 8.32,-7.03 3.8,0 6.65,1.98 7.03,2.24 0.3,0.19 0.61,0.72 0.23,1.29 -0.3,0.46 -0.65,0.99 -0.95,1.44 -0.3,0.49 -0.8,0.72 -1.33,0.38 -0.27,-0.15 -2.93,-1.9 -5.13,-1.9 -3.19,0 -4.29,2.01 -4.29,3.42 0,2.17 1.67,3.5 4.83,4.79 4.41,1.79 8.17,3.88 8.17,8.51 0,3.95 -3.53,7.18 -8.47,7.18 -4.64,0 -7.56,-2.43 -8.17,-3 -0.34,-0.3 -0.61,-0.57 -0.23,-1.22 z"
         id="path48" />
    </g>
    <g
       id="g1208">
      <g
         id="g1155">
        <path
           class="cls-5"
           d="M 35.51,4.5 C 15.9,4.5 0,20.4 0,40.02 c 0,0.06 0,0.12 0,0.18 0.06,0 0.12,0 0.18,0 19.61,0 35.51,-15.9 35.51,-35.51 0,-0.06 0,-0.12 0,-0.18 -0.06,0 -0.12,0 -0.18,0 z"
           id="path6" />
        <path
           class="cls-3"
           d="m 35.71,4.51 c 0,0.06 0,0.12 0,0.18 0,19.55 15.8,35.41 35.32,35.51 0,-0.06 0,-0.12 0,-0.18 0,-19.55 -15.8,-35.41 -35.32,-35.51 z"
           id="path8" />
        <path
           class="cls-4"
           d="m 0.19,40.33 c -0.06,0 -0.12,0 -0.18,0 0.17,19.47 16,35.2 35.51,35.2 0.06,0 0.12,0 0.18,0 -0.17,-19.47 -16,-35.2 -35.51,-35.2 z"
           id="path10" />
        <path
           class="cls-2"
           d="M 35.71,75.53 C 55.13,75.43 70.85,59.74 71.02,40.34 51.6,40.44 35.88,56.13 35.71,75.53 Z"
           id="path12" />
      </g>
      <path
         class="cls-5"
         d="M 35.51,4.5 C 15.9,4.5 0,20.4 0,40.02 c 0,0.06 0,0.12 0,0.18 0.06,0 0.12,0 0.18,0 19.61,0 35.51,-15.9 35.51,-35.51 0,-0.06 0,-0.12 0,-0.18 -0.06,0 -0.12,0 -0.18,0 z"
         id="path54" />
      <path
         class="cls-3"
         d="m 35.71,4.51 c 0,0.06 0,0.12 0,0.18 0,19.55 15.8,35.41 35.32,35.51 0,-0.06 0,-0.12 0,-0.18 0,-19.55 -15.8,-35.41 -35.32,-35.51 z"
         id="path56" />
      <path
         class="cls-4"
         d="m 0.19,40.33 c -0.06,0 -0.12,0 -0.18,0 0.17,19.47 16,35.2 35.51,35.2 0.06,0 0.12,0 0.18,0 -0.17,-19.47 -16,-35.2 -35.51,-35.2 z"
         id="path58" />
      <path
         class="cls-2"
         d="M 35.71,75.53 C 55.13,75.43 70.85,59.74 71.02,40.34 51.6,40.44 35.88,56.13 35.71,75.53 Z"
         id="path60" />
    </g>
  </g>
</svg>
