<?xml version="1.0" encoding="UTF-8" standalone="no"?>
<svg
   id="Layer_1"
   data-name="Layer 1"
   viewBox="0 0 663.16999 68.25"
   version="1.1"
   sodipodi:docname="quilting-adventures-hzt-full.svg"
   inkscape:version="1.1.2 (0a00cf5339, 2022-02-04)"
   width="663.16998"
   height="68.25"
   inkscape:export-filename="/home/david/Workspace/ba-quilters/quilting-adventures-branding/logo/png/quilting-adventures-hzt-full.png"
   inkscape:export-xdpi="96"
   inkscape:export-ydpi="96"
   xmlns:inkscape="http://www.inkscape.org/namespaces/inkscape"
   xmlns:sodipodi="http://sodipodi.sourceforge.net/DTD/sodipodi-0.dtd"
   xmlns="http://www.w3.org/2000/svg"
   xmlns:svg="http://www.w3.org/2000/svg">
  <sodipodi:namedview
     id="namedview55"
     pagecolor="#ffffff"
     bordercolor="#666666"
     borderopacity="1.0"
     inkscape:pageshadow="2"
     inkscape:pageopacity="0.0"
     inkscape:pagecheckerboard="true"
     showgrid="false"
     inkscape:zoom="1.2382913"
     inkscape:cx="269.32274"
     inkscape:cy="28.668537"
     inkscape:window-width="1920"
     inkscape:window-height="1011"
     inkscape:window-x="0"
     inkscape:window-y="32"
     inkscape:window-maximized="1"
     inkscape:current-layer="Layer_1"
     fit-margin-top="0"
     fit-margin-left="0"
     fit-margin-right="0"
     fit-margin-bottom="0" />
  <defs
     id="defs4">
    <style
       id="style2">
      .cls-1, .cls-2, .cls-3, .cls-4, .cls-5 {
        stroke-width: 0px;
      }

      .cls-2 {
        fill: #f4ca4b;
      }

      .cls-3 {
        fill: #406c7b;
      }

      .cls-4 {
        fill: #8e2a59;
      }

      .cls-5 {
        fill: #c37633;
      }
    </style>
  </defs>
  <g
     id="g894">
    <g
       id="g42"
       transform="translate(-12)">
      <path
         class="cls-1"
         d="m 115.86,13.67 c 10.34,0 18.61,8.32 18.61,18.67 0,7.03 -4.09,13.24 -10.08,16.55 l 6.46,10.19 c 0.47,0.72 0,1.55 -0.83,1.55 h -5.48 c -0.21,0 -0.67,-0.21 -0.83,-0.52 l -5.53,-9.36 c -0.83,0.1 -1.71,0.15 -2.33,0.15 -10.34,0 -18.56,-8.22 -18.56,-18.56 0,-10.34 8.22,-18.67 18.56,-18.67 z m 0,30.51 c 6.51,0 11.89,-5.33 11.89,-11.84 0,-6.51 -5.38,-11.94 -11.89,-11.94 -6.51,0 -11.84,5.43 -11.84,11.94 0,6.51 5.33,11.84 11.84,11.84 z"
         id="path6" />
      <path
         class="cls-1"
         d="m 140.79,15.17 c 0,-0.52 0.47,-0.98 0.98,-0.98 h 4.91 c 0.57,0 0.98,0.47 0.98,0.98 v 21.15 c 0,4.39 3,7.86 7.5,7.86 4.5,0 7.55,-3.46 7.55,-7.81 v -21.2 c 0,-0.52 0.41,-0.98 0.98,-0.98 h 4.91 c 0.52,0 0.98,0.47 0.98,0.98 v 21.51 c 0,7.86 -6.26,14.22 -14.43,14.22 -8.17,0 -14.37,-6.36 -14.37,-14.22 V 15.17 Z"
         id="path8" />
      <path
         class="cls-1"
         d="m 178.49,15.17 c 0,-0.52 0.47,-0.98 0.98,-0.98 h 4.81 c 0.52,0 0.98,0.47 0.98,0.98 V 49.4 c 0,0.52 -0.47,0.98 -0.98,0.98 h -4.81 c -0.52,0 -0.98,-0.47 -0.98,-0.98 z"
         id="path10" />
      <path
         class="cls-1"
         d="m 194.67,15.17 c 0,-0.52 0.41,-0.98 0.98,-0.98 h 4.76 c 0.52,0 0.98,0.47 0.98,0.98 v 29.01 h 13.18 c 0.57,0 0.98,0.47 0.98,0.98 v 4.24 c 0,0.52 -0.41,0.98 -0.98,0.98 h -18.92 c -0.57,0 -0.98,-0.47 -0.98,-0.98 z"
         id="path12" />
      <path
         class="cls-1"
         d="m 223.58,20.4 h -7.91 c -0.57,0 -0.98,-0.47 -0.98,-0.98 v -4.24 c 0,-0.52 0.41,-0.98 0.98,-0.98 h 22.6 c 0.57,0 0.98,0.47 0.98,0.98 v 4.24 c 0,0.52 -0.41,0.98 -0.98,0.98 h -7.91 v 29.01 c 0,0.52 -0.47,0.98 -0.98,0.98 h -4.81 c -0.52,0 -0.98,-0.47 -0.98,-0.98 V 20.4 Z"
         id="path14" />
      <path
         class="cls-1"
         d="m 244.63,15.17 c 0,-0.52 0.47,-0.98 0.98,-0.98 h 4.81 c 0.52,0 0.98,0.47 0.98,0.98 V 49.4 c 0,0.52 -0.47,0.98 -0.98,0.98 h -4.81 c -0.52,0 -0.98,-0.47 -0.98,-0.98 z"
         id="path16" />
      <path
         class="cls-1"
         d="m 260.81,14.61 c 0,-0.52 0.47,-0.93 0.98,-0.93 h 1.29 l 21.51,22.85 h 0.05 V 15.17 c 0,-0.52 0.41,-0.98 0.98,-0.98 h 4.76 c 0.52,0 0.98,0.47 0.98,0.98 v 34.8 c 0,0.52 -0.47,0.93 -0.98,0.93 h -1.24 L 267.53,27.17 h -0.05 V 49.4 c 0,0.52 -0.41,0.98 -0.98,0.98 h -4.71 c -0.52,0 -0.98,-0.47 -0.98,-0.98 z"
         id="path18" />
      <path
         class="cls-1"
         d="m 316.76,13.67 c 4.65,0 9.1,1.81 12.62,4.81 0.41,0.41 0.47,1.03 0.05,1.45 l -3.21,3.36 c -0.41,0.41 -0.88,0.41 -1.34,0 -2.22,-1.96 -4.96,-3 -7.81,-3 -6.46,0 -11.58,5.53 -11.58,12 0,6.47 5.12,11.84 11.63,11.84 2.9,0 5.12,-0.88 6.15,-1.29 v -4.39 h -4.14 c -0.57,0 -0.98,-0.41 -0.98,-0.93 v -4.09 c 0,-0.57 0.41,-0.98 0.98,-0.98 h 9.93 c 0.52,0 0.93,0.47 0.93,0.98 v 13.24 c 0,0.41 -0.21,0.67 -0.41,0.83 0,0 -5.33,3.36 -12.82,3.36 -10.29,0 -18.56,-8.17 -18.56,-18.51 0,-10.34 8.27,-18.67 18.56,-18.67 z"
         id="path20" />
      <path
         class="cls-1"
         d="m 344.33,49.04 16.08,-34.8 c 0.15,-0.31 0.41,-0.57 0.88,-0.57 h 0.52 c 0.52,0 0.72,0.26 0.88,0.57 l 15.93,34.8 c 0.31,0.67 -0.1,1.34 -0.88,1.34 h -4.5 c -0.78,0 -1.14,-0.31 -1.5,-1.03 l -2.53,-5.58 h -15.46 l -2.53,5.58 c -0.21,0.52 -0.67,1.03 -1.5,1.03 h -4.5 c -0.78,0 -1.19,-0.67 -0.88,-1.34 z M 366.67,38.03 361.5,26.65 h -0.16 l -5.07,11.38 h 10.39 z"
         id="path22" />
      <path
         class="cls-1"
         d="m 383.32,15.17 c 0,-0.52 0.41,-0.98 0.93,-0.98 h 12.25 c 9.98,0 18.15,8.12 18.15,18.05 0,9.93 -8.17,18.15 -18.15,18.15 h -12.25 c -0.52,0 -0.93,-0.47 -0.93,-0.98 z m 12.56,28.9 c 6.72,0 11.63,-5.07 11.63,-11.84 0,-6.77 -4.91,-11.79 -11.63,-11.79 h -5.89 v 23.63 z"
         id="path24" />
      <path
         class="cls-1"
         d="m 416.47,15.54 c -0.31,-0.67 0.1,-1.34 0.88,-1.34 h 5.27 c 0.47,0 0.78,0.31 0.88,0.57 L 433.43,37 h 0.36 l 9.93,-22.23 c 0.1,-0.26 0.41,-0.57 0.88,-0.57 h 5.27 c 0.78,0 1.19,0.67 0.88,1.34 l -16.03,34.8 c -0.16,0.31 -0.41,0.57 -0.88,0.57 h -0.52 c -0.47,0 -0.72,-0.26 -0.88,-0.57 l -15.98,-34.8 z"
         id="path26" />
      <path
         class="cls-1"
         d="m 455.46,15.17 c 0,-0.52 0.41,-0.98 0.98,-0.98 h 21.04 c 0.57,0 0.98,0.47 0.98,0.98 v 4.24 c 0,0.52 -0.41,0.98 -0.98,0.98 h -15.31 v 8.48 h 12.77 c 0.52,0 0.98,0.47 0.98,0.98 v 4.29 c 0,0.57 -0.47,0.98 -0.98,0.98 h -12.77 v 9.05 h 15.31 c 0.57,0 0.98,0.47 0.98,0.98 v 4.24 c 0,0.52 -0.41,0.98 -0.98,0.98 h -21.04 c -0.57,0 -0.98,-0.47 -0.98,-0.98 z"
         id="path28" />
      <path
         class="cls-1"
         d="m 485.86,14.61 c 0,-0.52 0.47,-0.93 0.98,-0.93 h 1.29 l 21.51,22.85 h 0.05 V 15.17 c 0,-0.52 0.41,-0.98 0.98,-0.98 h 4.76 c 0.52,0 0.98,0.47 0.98,0.98 v 34.8 c 0,0.52 -0.47,0.93 -0.98,0.93 h -1.24 L 492.58,27.17 h -0.05 V 49.4 c 0,0.52 -0.41,0.98 -0.98,0.98 h -4.7 c -0.52,0 -0.98,-0.47 -0.98,-0.98 V 14.61 Z"
         id="path30" />
      <path
         class="cls-1"
         d="m 530.7,20.4 h -7.91 c -0.57,0 -0.98,-0.47 -0.98,-0.98 v -4.24 c 0,-0.52 0.41,-0.98 0.98,-0.98 h 22.6 c 0.57,0 0.98,0.47 0.98,0.98 v 4.24 c 0,0.52 -0.41,0.98 -0.98,0.98 h -7.91 v 29.01 c 0,0.52 -0.47,0.98 -0.98,0.98 h -4.81 c -0.52,0 -0.98,-0.47 -0.98,-0.98 V 20.4 Z"
         id="path32" />
      <path
         class="cls-1"
         d="m 551.23,15.17 c 0,-0.52 0.47,-0.98 0.98,-0.98 h 4.91 c 0.57,0 0.98,0.47 0.98,0.98 v 21.15 c 0,4.39 3,7.86 7.5,7.86 4.5,0 7.55,-3.46 7.55,-7.81 v -21.2 c 0,-0.52 0.41,-0.98 0.98,-0.98 h 4.91 c 0.52,0 0.98,0.47 0.98,0.98 v 21.51 c 0,7.86 -6.26,14.22 -14.43,14.22 -8.17,0 -14.37,-6.36 -14.37,-14.22 V 15.17 Z"
         id="path34" />
      <path
         class="cls-1"
         d="m 588.93,15.17 c 0,-0.52 0.41,-0.98 0.98,-0.98 h 14.79 c 6.2,0 11.27,4.96 11.27,11.12 0,4.76 -3.15,8.63 -7.65,10.44 l 7.08,13.13 c 0.36,0.67 0,1.5 -0.88,1.5 h -5.43 c -0.47,0 -0.72,-0.26 -0.83,-0.47 l -6.88,-13.7 h -5.74 V 49.4 c 0,0.52 -0.47,0.98 -0.98,0.98 h -4.76 c -0.57,0 -0.98,-0.47 -0.98,-0.98 V 15.17 Z m 15.2,15.51 c 2.74,0 5.12,-2.38 5.12,-5.27 0,-2.74 -2.38,-5.02 -5.12,-5.02 h -8.43 v 10.29 z"
         id="path36" />
      <path
         class="cls-1"
         d="m 623.37,15.17 c 0,-0.52 0.41,-0.98 0.98,-0.98 h 21.04 c 0.57,0 0.98,0.47 0.98,0.98 v 4.24 c 0,0.52 -0.41,0.98 -0.98,0.98 h -15.31 v 8.48 h 12.77 c 0.52,0 0.98,0.47 0.98,0.98 v 4.29 c 0,0.57 -0.47,0.98 -0.98,0.98 h -12.77 v 9.05 h 15.31 c 0.57,0 0.98,0.47 0.98,0.98 v 4.24 c 0,0.52 -0.41,0.98 -0.98,0.98 h -21.04 c -0.57,0 -0.98,-0.47 -0.98,-0.98 z"
         id="path38" />
      <path
         class="cls-1"
         d="m 651.65,45.32 1.86,-3.21 c 0.41,-0.72 1.29,-0.72 1.76,-0.36 0.26,0.16 4.45,3.21 7.81,3.21 2.69,0 4.7,-1.76 4.7,-3.98 0,-2.64 -2.22,-4.45 -6.57,-6.2 -4.86,-1.96 -9.72,-5.07 -9.72,-11.17 0,-4.6 3.41,-9.93 11.63,-9.93 5.27,0 9.31,2.69 10.34,3.46 0.52,0.31 0.67,1.19 0.31,1.71 l -1.96,2.95 c -0.41,0.62 -1.19,1.03 -1.81,0.62 -0.41,-0.26 -4.34,-2.84 -7.19,-2.84 -2.85,0 -4.55,1.96 -4.55,3.62 0,2.43 1.91,4.08 6.1,5.79 5.02,2.02 10.81,5.01 10.81,11.68 0,5.33 -4.6,10.24 -11.89,10.24 -6.51,0 -10.34,-3.05 -11.37,-4.03 -0.47,-0.47 -0.72,-0.72 -0.26,-1.55 z"
         id="path40" />
    </g>
    <g
       id="g52">
      <path
         class="cls-5"
         d="M 34.13,0 C 15.28,0 0,15.28 0,34.13 c 0,0.06 0,0.12 0,0.18 0.06,0 0.12,0 0.18,0 18.85,0 34.13,-15.28 34.13,-34.13 0,-0.06 0,-0.12 0,-0.18 -0.06,0 -0.12,0 -0.18,0 z"
         id="path44" />
      <path
         class="cls-3"
         d="m 34.31,0 c 0,0.06 0,0.12 0,0.17 0,18.79 15.18,34.02 33.94,34.12 0,-0.06 0,-0.12 0,-0.17 C 68.25,15.34 53.07,0.1 34.31,0 Z"
         id="path46" />
      <path
         class="cls-4"
         d="m 0.18,34.43 c -0.06,0 -0.11,0 -0.17,0 0.16,18.71 15.37,33.82 34.12,33.82 0.06,0 0.11,0 0.17,0 C 34.14,49.54 18.93,34.43 0.18,34.43 Z"
         id="path48" />
      <path
         class="cls-2"
         d="M 34.31,68.25 C 52.97,68.15 68.08,53.08 68.24,34.43 49.58,34.53 34.47,49.6 34.31,68.25 Z"
         id="path50" />
    </g>
  </g>
</svg>
